<svg xmlns="http://www.w3.org/2000/svg" style="display: none;">
  <defs>
    <symbol id="cloud1" class="cloud big front slowest" viewBox="0 0 762 331">
      <path fill="#FFFFFF" d="M715.394,228h-16.595c0.79-5.219,1.201-10.562,1.201-16c0-58.542-47.458-106-106-106
      c-8.198,0-16.178,0.932-23.841,2.693C548.279,45.434,488.199,0,417.5,0c-84.827,0-154.374,65.401-160.98,148.529
      C245.15,143.684,232.639,141,219.5,141c-49.667,0-90.381,38.315-94.204,87H46.607C20.866,228,0,251.058,0,279.5
      S20.866,331,46.607,331h668.787C741.133,331,762,307.942,762,279.5S741.133,228,715.394,228z" />
    </symbol>
  
    <symbol id="cloud2" class="cloud distant smaller" viewBox="0 0 762 331">
      <path fill="#FFFFFF" d="M715.394,228h-16.595c0.79-5.219,1.201-10.562,1.201-16c0-58.542-47.458-106-106-106
      c-8.198,0-16.178,0.932-23.841,2.693C548.279,45.434,488.199,0,417.5,0c-84.827,0-154.374,65.401-160.98,148.529
      C245.15,143.684,232.639,141,219.5,141c-49.667,0-90.381,38.315-94.204,87H46.607C20.866,228,0,251.058,0,279.5
      S20.866,331,46.607,331h668.787C741.133,331,762,307.942,762,279.5S741.133,228,715.394,228z" />
    </symbol>

    <symbol id="cloud3" class="cloud small slow" viewBox="0 0 762 331">
      <path fill="#FFFFFF" d="M715.394,228h-16.595c0.79-5.219,1.201-10.562,1.201-16c0-58.542-47.458-106-106-106
      c-8.198,0-16.178,0.932-23.841,2.693C548.279,45.434,488.199,0,417.5,0c-84.827,0-154.374,65.401-160.98,148.529
      C245.15,143.684,232.639,141,219.5,141c-49.667,0-90.381,38.315-94.204,87H46.607C20.866,228,0,251.058,0,279.5
      S20.866,331,46.607,331h668.787C741.133,331,762,307.942,762,279.5S741.133,228,715.394,228z" />
    </symbol>

    <symbol id="cloud4" class="cloud distant super-slow massive" viewBox="0 0 762 331">
      <path fill="#FFFFFF" d="M715.394,228h-16.595c0.79-5.219,1.201-10.562,1.201-16c0-58.542-47.458-106-106-106
      c-8.198,0-16.178,0.932-23.841,2.693C548.279,45.434,488.199,0,417.5,0c-84.827,0-154.374,65.401-160.98,148.529
      C245.15,143.684,232.639,141,219.5,141c-49.667,0-90.381,38.315-94.204,87H46.607C20.866,228,0,251.058,0,279.5
      S20.866,331,46.607,331h668.787C741.133,331,762,307.942,762,279.5S741.133,228,715.394,228z" />
    </symbol>

    <symbol id="cloud5" class="cloud slower" viewBox="0 0 762 331">
      <path fill="#FFFFFF" d="M715.394,228h-16.595c0.79-5.219,1.201-10.562,1.201-16c0-58.542-47.458-106-106-106
      c-8.198,0-16.178,0.932-23.841,2.693C548.279,45.434,488.199,0,417.5,0c-84.827,0-154.374,65.401-160.98,148.529
      C245.15,143.684,232.639,141,219.5,141c-49.667,0-90.381,38.315-94.204,87H46.607C20.866,228,0,251.058,0,279.5
      S20.866,331,46.607,331h668.787C741.133,331,762,307.942,762,279.5S741.133,228,715.394,228z" />
    </symbol>

    <symbol id="airplane" class="plane" viewBox="0 0 1131.53 379.304">
      <polygon fill="#D8D8D8" points="72.008,0 274.113,140.173 274.113,301.804 390.796,221.102 601.682,367.302 1131.53,0.223"/>
      <polygon fill="#C4C4C3" points="1131.53,0.223 274.113,140.173 274.113,301.804 390.796,221.102"/>
    </symbol>
    
    <symbol id="record-player" class="recordPlayer" viewBox="0 0 30 30">
      <path fill="rgba(60, 59, 59, 0.977)" d="M23.203 21.947c0.163 0.354 0.009 0.773-0.345 0.936l-3.247 1.498c-0.354 0.163-0.773 0.009-0.936-0.345l-0.973-2.109c-0.163-0.354-0.009-0.773 0.345-0.936l3.247-1.498c0.354-0.163 0.773-0.009 0.936 0.345l0.095 0.206 4.065-1.879c0.068-0.031 0.137-0.063 0.205-0.1 0.106-0.672 0.162-1.363 0.162-2.066 0-7.392-5.992-13.378-13.378-13.378-7.392-0-13.378 5.986-13.378 13.378 0 7.386 5.986 13.378 13.378 13.378 5.843 0 10.815-3.752 12.631-8.979l-2.903 1.34 0.096 0.208zM13.376 21.487c-3.031 0-5.488-2.457-5.488-5.488s2.457-5.489 5.488-5.489 5.488 2.457 5.488 5.489c0 3.032-2.457 5.488-5.488 5.488z"></path>
      <path fill="rgba(60, 59, 59, 0.977)" d="M13.376 13.585c-1.332 0-2.412 1.080-2.412 2.412 0 1.333 1.080 2.412 2.412 2.412s2.412-1.079 2.412-2.412c0-1.332-1.080-2.412-2.412-2.412z"></path>
      <path fill="rgba(60, 59, 59, 0.977)" d="M32 4.819h-4.582v5.6h1.348c0 2.084 0 4.038 0 4.038 0 1.518-0.84 2.906-2.172 3.609-0.124 0.803-0.317 1.587-0.585 2.333l1.164-0.535c2.11-0.97 3.46-3.086 3.46-5.407 0 0 0-1.954 0-4.038h1.367v-5.6z"></path>
    </symbol>

    <symbol id="linkedin" viewBox="0 0 32 32">
      <path fill="#758ca3" style="fill: var(--color1, #758ca3)" d="M29.714 0h-27.436c-1.257 0-2.279 1.036-2.279 2.307v27.386c0 1.271 1.021 2.307 2.279 2.307h27.436c1.257 0 2.286-1.036 2.286-2.307v-27.386c0-1.271-1.029-2.307-2.286-2.307zM9.671 27.429h-4.743v-15.271h4.75v15.271h-0.007zM7.3 10.071c-1.521 0-2.75-1.236-2.75-2.75s1.229-2.75 2.75-2.75c1.514 0 2.75 1.236 2.75 2.75 0 1.521-1.229 2.75-2.75 2.75zM27.45 27.429h-4.743v-7.429c0-1.771-0.036-4.050-2.464-4.050-2.471 0-2.85 1.929-2.85 3.921v7.557h-4.743v-15.271h4.55v2.086h0.064c0.636-1.2 2.186-2.464 4.493-2.464 4.8 0 5.693 3.164 5.693 7.279v8.371z"></path>
    </symbol>

    <symbol id="github" viewBox="0 0 32 32">
      <path fill="#758ca3" style="fill: var(--color1, #758ca3)" d="M16.273 0.667c-7.526-0.008-13.945 5.448-15.15 12.877s3.16 14.634 10.303 17.005c0.772 0.141 1.045-0.339 1.045-0.744s0-1.327 0-2.607c-4.282 0.932-5.186-2.061-5.186-2.061-0.284-0.928-0.888-1.725-1.704-2.249-1.384-0.941 0.113-0.941 0.113-0.941 0.983 0.139 1.847 0.722 2.344 1.581 0.421 0.763 1.128 1.326 1.965 1.567s1.735 0.137 2.496-0.287c0.059-0.774 0.393-1.502 0.941-2.052-3.407-0.386-6.984-1.704-6.984-7.529-0.023-1.522 0.539-2.995 1.572-4.113-0.46-1.323-0.406-2.771 0.151-4.056 0 0 1.289-0.414 4.216 1.572 2.514-0.69 5.166-0.69 7.68 0 2.927-1.986 4.207-1.572 4.207-1.572 0.564 1.272 0.631 2.709 0.188 4.028 1.032 1.118 1.595 2.591 1.572 4.113 0 5.892-3.586 7.181-7.002 7.529 0.741 0.745 1.122 1.775 1.045 2.823 0 2.052 0 3.708 0 4.207s0.273 0.885 1.054 0.734c7.058-2.433 11.337-9.595 10.135-16.963s-7.536-12.799-15.001-12.863z"></path>
    </symbol>
    
    <symbol id="instagram" viewBox="0 0 32 32">
      <path fill="#758ca3" style="fill: var(--color1, #758ca3)" d="M15.995 0.010c-4.344 0-4.889 0.018-6.595 0.096-1.702 0.078-2.865 0.348-3.883 0.744-1.052 0.409-1.944 0.956-2.833 1.845s-1.436 1.781-1.845 2.833c-0.395 1.017-0.666 2.18-0.744 3.883-0.078 1.706-0.096 2.251-0.096 6.595s0.018 4.889 0.096 6.595c0.078 1.702 0.348 2.865 0.744 3.883 0.409 1.052 0.956 1.944 1.845 2.833s1.781 1.436 2.833 1.845c1.017 0.395 2.18 0.666 3.883 0.743 1.706 0.078 2.251 0.096 6.595 0.096s4.889-0.018 6.595-0.096c1.703-0.078 2.865-0.348 3.883-0.743 1.052-0.409 1.944-0.956 2.833-1.845s1.436-1.781 1.845-2.833c0.395-1.017 0.666-2.18 0.743-3.883 0.078-1.706 0.096-2.251 0.096-6.595s-0.018-4.889-0.096-6.595c-0.078-1.702-0.348-2.865-0.743-3.883-0.409-1.052-0.956-1.944-1.845-2.833s-1.781-1.436-2.833-1.845c-1.017-0.395-2.18-0.666-3.883-0.744-1.706-0.078-2.251-0.096-6.595-0.096zM15.995 2.892c4.271 0 4.777 0.016 6.463 0.093 1.559 0.071 2.406 0.332 2.97 0.551 0.747 0.29 1.279 0.637 1.839 1.196s0.906 1.093 1.197 1.839c0.219 0.564 0.48 1.411 0.551 2.97 0.077 1.687 0.093 2.193 0.093 6.463s-0.016 4.777-0.093 6.463c-0.071 1.559-0.332 2.406-0.551 2.97-0.29 0.747-0.637 1.279-1.197 1.839s-1.093 0.906-1.839 1.197c-0.564 0.219-1.411 0.48-2.97 0.551-1.686 0.077-2.192 0.093-6.463 0.093s-4.777-0.016-6.463-0.093c-1.559-0.071-2.406-0.332-2.97-0.551-0.747-0.29-1.279-0.637-1.839-1.197s-0.906-1.093-1.196-1.839c-0.219-0.564-0.48-1.411-0.551-2.97-0.077-1.687-0.093-2.193-0.093-6.463s0.016-4.777 0.093-6.463c0.071-1.559 0.332-2.406 0.551-2.97 0.29-0.747 0.637-1.279 1.196-1.839s1.093-0.906 1.839-1.196c0.564-0.219 1.411-0.48 2.97-0.551 1.687-0.077 2.193-0.093 6.463-0.093zM15.995 21.337c-2.945 0-5.332-2.387-5.332-5.332s2.387-5.332 5.332-5.332c2.945 0 5.332 2.387 5.332 5.332s-2.387 5.332-5.332 5.332zM15.995 7.792c-4.536 0-8.214 3.677-8.214 8.214s3.677 8.213 8.214 8.213 8.214-3.677 8.214-8.213c0-4.536-3.677-8.214-8.214-8.214zM24.533 9.387c1.060 0 1.919-0.859 1.919-1.919s-0.859-1.919-1.919-1.919c-1.060 0-1.919 0.859-1.919 1.919s0.859 1.919 1.919 1.919z"></path>
    </symbol>
  </defs>
</svg>
