<svg xmlns="http://www.w3.org/2000/svg" style="display: none;">
  <symbol id="cloud1" class="cloud big front slowest" viewBox="0 0 762 331">
    <path fill="#FFFFFF" d="M715.394,228h-16.595c0.79-5.219,1.201-10.562,1.201-16c0-58.542-47.458-106-106-106
    c-8.198,0-16.178,0.932-23.841,2.693C548.279,45.434,488.199,0,417.5,0c-84.827,0-154.374,65.401-160.98,148.529
    C245.15,143.684,232.639,141,219.5,141c-49.667,0-90.381,38.315-94.204,87H46.607C20.866,228,0,251.058,0,279.5
    S20.866,331,46.607,331h668.787C741.133,331,762,307.942,762,279.5S741.133,228,715.394,228z" />
  </symbol>
  
  <symbol id="cloud2" class="cloud distant smaller" viewBox="0 0 762 331">
    <path fill="#FFFFFF" d="M715.394,228h-16.595c0.79-5.219,1.201-10.562,1.201-16c0-58.542-47.458-106-106-106
    c-8.198,0-16.178,0.932-23.841,2.693C548.279,45.434,488.199,0,417.5,0c-84.827,0-154.374,65.401-160.98,148.529
    C245.15,143.684,232.639,141,219.5,141c-49.667,0-90.381,38.315-94.204,87H46.607C20.866,228,0,251.058,0,279.5
    S20.866,331,46.607,331h668.787C741.133,331,762,307.942,762,279.5S741.133,228,715.394,228z" />
  </symbol>

  <symbol id="cloud3" class="cloud small slow" viewBox="0 0 762 331">
    <path fill="#FFFFFF" d="M715.394,228h-16.595c0.79-5.219,1.201-10.562,1.201-16c0-58.542-47.458-106-106-106
    c-8.198,0-16.178,0.932-23.841,2.693C548.279,45.434,488.199,0,417.5,0c-84.827,0-154.374,65.401-160.98,148.529
    C245.15,143.684,232.639,141,219.5,141c-49.667,0-90.381,38.315-94.204,87H46.607C20.866,228,0,251.058,0,279.5
    S20.866,331,46.607,331h668.787C741.133,331,762,307.942,762,279.5S741.133,228,715.394,228z" />
  </symbol>

  <symbol id="cloud4" class="cloud distant super-slow massive" viewBox="0 0 762 331">
    <path fill="#FFFFFF" d="M715.394,228h-16.595c0.79-5.219,1.201-10.562,1.201-16c0-58.542-47.458-106-106-106
    c-8.198,0-16.178,0.932-23.841,2.693C548.279,45.434,488.199,0,417.5,0c-84.827,0-154.374,65.401-160.98,148.529
    C245.15,143.684,232.639,141,219.5,141c-49.667,0-90.381,38.315-94.204,87H46.607C20.866,228,0,251.058,0,279.5
    S20.866,331,46.607,331h668.787C741.133,331,762,307.942,762,279.5S741.133,228,715.394,228z" />
  </symbol>

  <symbol id="cloud5" class="cloud slower" viewBox="0 0 762 331">
    <path fill="#FFFFFF" d="M715.394,228h-16.595c0.79-5.219,1.201-10.562,1.201-16c0-58.542-47.458-106-106-106
    c-8.198,0-16.178,0.932-23.841,2.693C548.279,45.434,488.199,0,417.5,0c-84.827,0-154.374,65.401-160.98,148.529
    C245.15,143.684,232.639,141,219.5,141c-49.667,0-90.381,38.315-94.204,87H46.607C20.866,228,0,251.058,0,279.5
    S20.866,331,46.607,331h668.787C741.133,331,762,307.942,762,279.5S741.133,228,715.394,228z" />
  </symbol>

  <symbol id="airplane" class="plane" viewBox="0 0 1131.53 379.304">
    <polygon fill="#D8D8D8" points="72.008,0 274.113,140.173 274.113,301.804 390.796,221.102 601.682,367.302 1131.53,0.223"/>
    <polygon fill="#C4C4C3" points="1131.53,0.223 274.113,140.173 274.113,301.804 390.796,221.102"/>
  </symbol>
    
  <symbol id="record-player" class="recordPlayer" viewBox="0 0 32 32">
    <path fill="rgba(60, 59, 59, 0.977)" d="M23.203 21.947c0.163 0.354 0.009 0.773-0.345 0.936l-3.247 1.498c-0.354 0.163-0.773 0.009-0.936-0.345l-0.973-2.109c-0.163-0.354-0.009-0.773 0.345-0.936l3.247-1.498c0.354-0.163 0.773-0.009 0.936 0.345l0.095 0.206 4.065-1.879c0.068-0.031 0.137-0.063 0.205-0.1 0.106-0.672 0.162-1.363 0.162-2.066 0-7.392-5.992-13.378-13.378-13.378-7.392-0-13.378 5.986-13.378 13.378 0 7.386 5.986 13.378 13.378 13.378 5.843 0 10.815-3.752 12.631-8.979l-2.903 1.34 0.096 0.208zM13.376 21.487c-3.031 0-5.488-2.457-5.488-5.488s2.457-5.489 5.488-5.489 5.488 2.457 5.488 5.489c0 3.032-2.457 5.488-5.488 5.488z"></path>
    <path fill="rgba(60, 59, 59, 0.977)" d="M13.376 13.585c-1.332 0-2.412 1.080-2.412 2.412 0 1.333 1.080 2.412 2.412 2.412s2.412-1.079 2.412-2.412c0-1.332-1.080-2.412-2.412-2.412z"></path>
    <path fill="rgba(60, 59, 59, 0.977)" d="M32 4.819h-4.582v5.6h1.348c0 2.084 0 4.038 0 4.038 0 1.518-0.84 2.906-2.172 3.609-0.124 0.803-0.317 1.587-0.585 2.333l1.164-0.535c2.11-0.97 3.46-3.086 3.46-5.407 0 0 0-1.954 0-4.038h1.367v-5.6z"></path>
</symbol>

</svg>
