<svg xmlns="http://www.w3.org/2000/svg" style="display: none;">
  <defs>
    <symbol id="cloud1" class="cloud big front slowest" viewBox="0 0 762 331">
      <path fill="#FFFFFF" d="M715.394,228h-16.595c0.79-5.219,1.201-10.562,1.201-16c0-58.542-47.458-106-106-106
      c-8.198,0-16.178,0.932-23.841,2.693C548.279,45.434,488.199,0,417.5,0c-84.827,0-154.374,65.401-160.98,148.529
      C245.15,143.684,232.639,141,219.5,141c-49.667,0-90.381,38.315-94.204,87H46.607C20.866,228,0,251.058,0,279.5
      S20.866,331,46.607,331h668.787C741.133,331,762,307.942,762,279.5S741.133,228,715.394,228z" />
    </symbol>
  
    <symbol id="cloud2" class="cloud distant smaller" viewBox="0 0 762 331">
      <path fill="#FFFFFF" d="M715.394,228h-16.595c0.79-5.219,1.201-10.562,1.201-16c0-58.542-47.458-106-106-106
      c-8.198,0-16.178,0.932-23.841,2.693C548.279,45.434,488.199,0,417.5,0c-84.827,0-154.374,65.401-160.98,148.529
      C245.15,143.684,232.639,141,219.5,141c-49.667,0-90.381,38.315-94.204,87H46.607C20.866,228,0,251.058,0,279.5
      S20.866,331,46.607,331h668.787C741.133,331,762,307.942,762,279.5S741.133,228,715.394,228z" />
    </symbol>

    <symbol id="cloud3" class="cloud small slow" viewBox="0 0 762 331">
      <path fill="#FFFFFF" d="M715.394,228h-16.595c0.79-5.219,1.201-10.562,1.201-16c0-58.542-47.458-106-106-106
      c-8.198,0-16.178,0.932-23.841,2.693C548.279,45.434,488.199,0,417.5,0c-84.827,0-154.374,65.401-160.98,148.529
      C245.15,143.684,232.639,141,219.5,141c-49.667,0-90.381,38.315-94.204,87H46.607C20.866,228,0,251.058,0,279.5
      S20.866,331,46.607,331h668.787C741.133,331,762,307.942,762,279.5S741.133,228,715.394,228z" />
    </symbol>

    <symbol id="cloud4" class="cloud distant super-slow massive" viewBox="0 0 762 331">
      <path fill="#FFFFFF" d="M715.394,228h-16.595c0.79-5.219,1.201-10.562,1.201-16c0-58.542-47.458-106-106-106
      c-8.198,0-16.178,0.932-23.841,2.693C548.279,45.434,488.199,0,417.5,0c-84.827,0-154.374,65.401-160.98,148.529
      C245.15,143.684,232.639,141,219.5,141c-49.667,0-90.381,38.315-94.204,87H46.607C20.866,228,0,251.058,0,279.5
      S20.866,331,46.607,331h668.787C741.133,331,762,307.942,762,279.5S741.133,228,715.394,228z" />
    </symbol>

    <symbol id="cloud5" class="cloud slower" viewBox="0 0 762 331">
      <path fill="#FFFFFF" d="M715.394,228h-16.595c0.79-5.219,1.201-10.562,1.201-16c0-58.542-47.458-106-106-106
      c-8.198,0-16.178,0.932-23.841,2.693C548.279,45.434,488.199,0,417.5,0c-84.827,0-154.374,65.401-160.98,148.529
      C245.15,143.684,232.639,141,219.5,141c-49.667,0-90.381,38.315-94.204,87H46.607C20.866,228,0,251.058,0,279.5
      S20.866,331,46.607,331h668.787C741.133,331,762,307.942,762,279.5S741.133,228,715.394,228z" />
    </symbol>

    <symbol id="airplane" class="plane" viewBox="0 0 1131.53 379.304">
      <polygon fill="#D8D8D8" points="72.008,0 274.113,140.173 274.113,301.804 390.796,221.102 601.682,367.302 1131.53,0.223"/>
      <polygon fill="#C4C4C3" points="1131.53,0.223 274.113,140.173 274.113,301.804 390.796,221.102"/>
    </symbol>
    
    <symbol id="recordplayer" viewBox="0 0 32 32">
      <path fill="rgba(60, 59, 59, 0.977)" d="M29.488 29.429h-26.977c-1.385 0-2.511-1.127-2.511-2.511v-21.835c0-1.385 1.127-2.511 2.511-2.511h26.977c1.385 0 2.512 1.127 2.512 2.511v21.835c0 1.385-1.127 2.511-2.511 2.511zM2.511 3.203c-1.036 0-1.88 0.843-1.88 1.88v21.835c0 1.036 0.843 1.879 1.88 1.879h26.977c1.036 0 1.88-0.843 1.88-1.879v-21.835c0-1.037-0.843-1.88-1.88-1.88h-26.977zM13.748 26.555c-5.82 0-10.555-4.735-10.555-10.555s4.735-10.555 10.555-10.555c4.81 0 8.879 3.235 10.146 7.642l2.145-4.583c-0.345-0.323-0.561-0.782-0.561-1.291 0-0.975 0.793-1.768 1.768-1.768s1.768 0.793 1.768 1.768-0.793 1.768-1.768 1.768c-0.237 0-0.463-0.047-0.67-0.132l-2.448 5.231c0.115 0.623 0.175 1.265 0.175 1.92 0 5.82-4.735 10.555-10.555 10.555zM13.748 6.077c-5.471 0-9.923 4.451-9.923 9.923s4.451 9.923 9.923 9.923c5.472 0 9.923-4.451 9.923-9.923 0-0.291-0.013-0.579-0.037-0.864l-1.813 3.873c-0.052 0.111-0.163 0.182-0.286 0.182h-0.822v0.283c0 0.174-0.142 0.316-0.316 0.316h-2.829c-0.174 0-0.316-0.142-0.316-0.316v-0.268h-0.717c-0.174 0-0.316-0.142-0.316-0.316s0.142-0.316 0.316-0.316h0.717v-0.268c0-0.174 0.142-0.316 0.316-0.316h2.829c0.174 0 0.316 0.142 0.316 0.316v0.253h0.621l2.134-4.56c-0.929-4.515-4.934-7.921-9.72-7.921zM17.884 19.157h2.197v-0.536h-2.197v0.536zM27.246 6.077c-0.626 0-1.136 0.51-1.136 1.136s0.51 1.136 1.136 1.136c0.626 0 1.136-0.51 1.136-1.136s-0.509-1.136-1.136-1.136zM28.698 26.243h-2.904c-0.174 0-0.316-0.142-0.316-0.316v-1.843c0-0.174 0.142-0.316 0.316-0.316h2.904c0.174 0 0.316 0.142 0.316 0.316v1.843c0 0.174-0.141 0.316-0.316 0.316zM26.11 25.611h2.272v-1.211h-2.272v1.211zM13.748 24.994c-2.304 0-4.608-0.877-6.362-2.631-0.123-0.123-0.123-0.323 0-0.447s0.324-0.123 0.447 0c1.58 1.58 3.681 2.45 5.916 2.45s4.336-0.87 5.916-2.45c0.123-0.123 0.324-0.123 0.447 0s0.123 0.323 0 0.447c-1.754 1.754-4.058 2.631-6.363 2.631zM13.748 23.445c-1.989 0-3.858-0.774-5.264-2.181-0.123-0.123-0.123-0.323 0-0.447s0.323-0.123 0.447 0c1.287 1.287 2.998 1.996 4.817 1.996s3.531-0.709 4.817-1.996c0.123-0.123 0.324-0.123 0.447 0s0.123 0.323 0 0.447c-1.406 1.406-3.276 2.181-5.264 2.181zM28.698 23.030h-2.904c-0.174 0-0.316-0.142-0.316-0.316v-1.843c0-0.174 0.142-0.316 0.316-0.316h2.904c0.174 0 0.316 0.142 0.316 0.316v1.843c0 0.174-0.141 0.316-0.316 0.316zM26.11 22.398h2.272v-1.211h-2.272v1.211zM13.748 17.365c-0.753 0-1.365-0.612-1.365-1.365s0.612-1.365 1.365-1.365c0.753 0 1.365 0.612 1.365 1.365s-0.612 1.365-1.365 1.365zM13.748 15.267c-0.404 0-0.733 0.329-0.733 0.733s0.329 0.733 0.733 0.733c0.404 0 0.733-0.329 0.733-0.733s-0.329-0.733-0.733-0.733zM8.707 11.275c-0.081 0-0.162-0.031-0.223-0.093-0.123-0.123-0.123-0.323 0-0.447 1.406-1.406 3.276-2.181 5.264-2.181s3.858 0.774 5.264 2.181c0.123 0.123 0.123 0.323 0 0.447s-0.324 0.123-0.447 0c-1.287-1.287-2.998-1.996-4.817-1.996s-3.531 0.709-4.817 1.996c-0.062 0.062-0.143 0.093-0.223 0.093zM19.887 10.177c-0.081 0-0.162-0.031-0.223-0.093-1.58-1.58-3.681-2.45-5.916-2.45s-4.335 0.87-5.916 2.45c-0.123 0.123-0.324 0.123-0.447 0s-0.123-0.323 0-0.447c3.508-3.508 9.217-3.508 12.725 0 0.123 0.123 0.123 0.323 0 0.447-0.062 0.062-0.142 0.093-0.223 0.093z"></path>
    </symbol>

    <symbol id="linkedin" viewBox="0 0 32 32">
      <path fill="#758ca3" style="fill: var(--color1, #758ca3)" d="M29.714 0h-27.436c-1.257 0-2.279 1.036-2.279 2.307v27.386c0 1.271 1.021 2.307 2.279 2.307h27.436c1.257 0 2.286-1.036 2.286-2.307v-27.386c0-1.271-1.029-2.307-2.286-2.307zM9.671 27.429h-4.743v-15.271h4.75v15.271h-0.007zM7.3 10.071c-1.521 0-2.75-1.236-2.75-2.75s1.229-2.75 2.75-2.75c1.514 0 2.75 1.236 2.75 2.75 0 1.521-1.229 2.75-2.75 2.75zM27.45 27.429h-4.743v-7.429c0-1.771-0.036-4.050-2.464-4.050-2.471 0-2.85 1.929-2.85 3.921v7.557h-4.743v-15.271h4.55v2.086h0.064c0.636-1.2 2.186-2.464 4.493-2.464 4.8 0 5.693 3.164 5.693 7.279v8.371z"></path>
    </symbol>

    <symbol id="github" viewBox="0 0 32 32">
      <path fill="#758ca3" style="fill: var(--color1, #758ca3)" d="M16.273 0.667c-7.526-0.008-13.945 5.448-15.15 12.877s3.16 14.634 10.303 17.005c0.772 0.141 1.045-0.339 1.045-0.744s0-1.327 0-2.607c-4.282 0.932-5.186-2.061-5.186-2.061-0.284-0.928-0.888-1.725-1.704-2.249-1.384-0.941 0.113-0.941 0.113-0.941 0.983 0.139 1.847 0.722 2.344 1.581 0.421 0.763 1.128 1.326 1.965 1.567s1.735 0.137 2.496-0.287c0.059-0.774 0.393-1.502 0.941-2.052-3.407-0.386-6.984-1.704-6.984-7.529-0.023-1.522 0.539-2.995 1.572-4.113-0.46-1.323-0.406-2.771 0.151-4.056 0 0 1.289-0.414 4.216 1.572 2.514-0.69 5.166-0.69 7.68 0 2.927-1.986 4.207-1.572 4.207-1.572 0.564 1.272 0.631 2.709 0.188 4.028 1.032 1.118 1.595 2.591 1.572 4.113 0 5.892-3.586 7.181-7.002 7.529 0.741 0.745 1.122 1.775 1.045 2.823 0 2.052 0 3.708 0 4.207s0.273 0.885 1.054 0.734c7.058-2.433 11.337-9.595 10.135-16.963s-7.536-12.799-15.001-12.863z"></path>
    </symbol>
    
    <symbol id="instagram" viewBox="0 0 32 32">
      <path fill="#758ca3" style="fill: var(--color1, #758ca3)" d="M15.995 0.010c-4.344 0-4.889 0.018-6.595 0.096-1.702 0.078-2.865 0.348-3.883 0.744-1.052 0.409-1.944 0.956-2.833 1.845s-1.436 1.781-1.845 2.833c-0.395 1.017-0.666 2.18-0.744 3.883-0.078 1.706-0.096 2.251-0.096 6.595s0.018 4.889 0.096 6.595c0.078 1.702 0.348 2.865 0.744 3.883 0.409 1.052 0.956 1.944 1.845 2.833s1.781 1.436 2.833 1.845c1.017 0.395 2.18 0.666 3.883 0.743 1.706 0.078 2.251 0.096 6.595 0.096s4.889-0.018 6.595-0.096c1.703-0.078 2.865-0.348 3.883-0.743 1.052-0.409 1.944-0.956 2.833-1.845s1.436-1.781 1.845-2.833c0.395-1.017 0.666-2.18 0.743-3.883 0.078-1.706 0.096-2.251 0.096-6.595s-0.018-4.889-0.096-6.595c-0.078-1.702-0.348-2.865-0.743-3.883-0.409-1.052-0.956-1.944-1.845-2.833s-1.781-1.436-2.833-1.845c-1.017-0.395-2.18-0.666-3.883-0.744-1.706-0.078-2.251-0.096-6.595-0.096zM15.995 2.892c4.271 0 4.777 0.016 6.463 0.093 1.559 0.071 2.406 0.332 2.97 0.551 0.747 0.29 1.279 0.637 1.839 1.196s0.906 1.093 1.197 1.839c0.219 0.564 0.48 1.411 0.551 2.97 0.077 1.687 0.093 2.193 0.093 6.463s-0.016 4.777-0.093 6.463c-0.071 1.559-0.332 2.406-0.551 2.97-0.29 0.747-0.637 1.279-1.197 1.839s-1.093 0.906-1.839 1.197c-0.564 0.219-1.411 0.48-2.97 0.551-1.686 0.077-2.192 0.093-6.463 0.093s-4.777-0.016-6.463-0.093c-1.559-0.071-2.406-0.332-2.97-0.551-0.747-0.29-1.279-0.637-1.839-1.197s-0.906-1.093-1.196-1.839c-0.219-0.564-0.48-1.411-0.551-2.97-0.077-1.687-0.093-2.193-0.093-6.463s0.016-4.777 0.093-6.463c0.071-1.559 0.332-2.406 0.551-2.97 0.29-0.747 0.637-1.279 1.196-1.839s1.093-0.906 1.839-1.196c0.564-0.219 1.411-0.48 2.97-0.551 1.687-0.077 2.193-0.093 6.463-0.093zM15.995 21.337c-2.945 0-5.332-2.387-5.332-5.332s2.387-5.332 5.332-5.332c2.945 0 5.332 2.387 5.332 5.332s-2.387 5.332-5.332 5.332zM15.995 7.792c-4.536 0-8.214 3.677-8.214 8.214s3.677 8.213 8.214 8.213 8.214-3.677 8.214-8.213c0-4.536-3.677-8.214-8.214-8.214zM24.533 9.387c1.060 0 1.919-0.859 1.919-1.919s-0.859-1.919-1.919-1.919c-1.060 0-1.919 0.859-1.919 1.919s0.859 1.919 1.919 1.919z"></path>
    </symbol>

    <symbol id="paperplane" viewBox="0 0 32 32">
      <path d="M31.963 8c0.011-0.016 0.020-0.033 0.026-0.051 0.002-0.008 0.002-0.016 0.004-0.025 0.003-0.016 0.007-0.034 0.006-0.051 0-0.003 0.002-0.006 0.001-0.008-0.001-0.010-0.006-0.016-0.007-0.026s-0.002-0.021-0.006-0.031c-0.001-0.004-0.004-0.007-0.006-0.010-0.005-0.011-0.011-0.021-0.017-0.030-0.009-0.012-0.016-0.024-0.026-0.034-0.007-0.007-0.015-0.012-0.023-0.019-0.012-0.009-0.025-0.017-0.038-0.024-0.009-0.005-0.018-0.007-0.028-0.010-0.014-0.005-0.030-0.008-0.045-0.009 0 0-0.010-0.003-0.014-0.003h-0.008l-31.574 1.051c-0.102 0.003-0.188 0.079-0.203 0.18-0.016 0.1 0.043 0.2 0.14 0.233l7.028 2.478 2.039 12.541c0.005 0.027 0.014 0.052 0.028 0.075 0.002 0.003 0.005 0.005 0.007 0.008 0.018 0.026 0.042 0.048 0.069 0.064 0.004 0.002 0.005 0.007 0.009 0.009 0.004 0.003 0.007 0.001 0.010 0.003 0.027 0.012 0.056 0.021 0.087 0.021h0.001c0.011 0 0.023-0.001 0.034-0.003 0.033-0.006 0.061-0.018 0.086-0.037 0.002-0.001 0.004 0 0.005-0.001l21.504-15.729 0.845-0.494c0.006-0.003 0.010-0.008 0.014-0.011 0.017-0.012 0.033-0.024 0.046-0.040 0.004-0.005 0.006-0.011 0.010-0.016zM9.299 12.26c-0.003 0.003-0.006 0.005-0.008 0.008-0.026 0.030-0.042 0.066-0.048 0.106-0.001 0.004-0.005 0.007-0.005 0.010 0 0.002 0.001 0.005 0.001 0.007 0 0.005-0.002 0.011-0.002 0.016l-0.023 9.114-1.609-9.889 15.906-2.325-14.105 2.891c-0.043 0.009-0.079 0.032-0.108 0.061zM30.573 8.346l-12.925 7.556-7.513-3.417 20.438-4.14zM27.994 8.222l-20.613 3.013-6.031-2.127 26.644-0.886zM9.634 23.698l0.028-10.961 7.911 3.597c0.028 0.013 0.058 0.020 0.087 0.020 0.037 0 0.074-0.010 0.107-0.030l9.69-5.666-17.824 13.039z"></path>
    </symbol>
    <symbol id="nippers" viewBox="0 0 32 32">
      <path fill="rgba(60, 59, 59, 0.977)" d="M20.158 15.183c-0.052-0.158-0.074-0.32-0.066-0.481 0.038-0.727 0.384-1.408 0.948-1.869 0.424-0.346 0.589-0.886 0.431-1.411s-0.594-0.884-1.137-0.938c-0.097-0.010-0.31-0.014-0.31-0.014-0.065 0-0.13 0.003-0.195 0.008l-0.105-0.612c-0.053-0.309-0.319-0.534-0.632-0.534-0.085 0-0.168 0.017-0.247 0.050-0.037 0.015-0.076 0.032-0.117 0.049l-0.55-1.495c0.064-0.157 0.11-0.319 0.138-0.485l0.263-0.999c0.59-2.178 0.117-4.544-1.264-6.329-0.076-0.098-0.202-0.142-0.323-0.113s-0.213 0.126-0.236 0.248l-0.757 4.011-0.757-4.011c-0.023-0.122-0.115-0.219-0.236-0.248s-0.247 0.015-0.323 0.113c-1.382 1.785-1.854 4.151-1.264 6.33l0.318 1.157c0.025 0.102 0.058 0.2 0.095 0.295l-0.562 1.527c-0.041-0.017-0.080-0.034-0.117-0.049-0.079-0.033-0.162-0.050-0.247-0.050-0.313 0-0.579 0.225-0.632 0.534l-0.105 0.612c-0.065-0.005-0.13-0.008-0.195-0.008 0 0-0.214 0.005-0.31 0.014-0.544 0.054-0.979 0.414-1.137 0.938s0.007 1.065 0.431 1.411c0.565 0.461 0.91 1.142 0.948 1.868 0.008 0.162-0.014 0.324-0.066 0.482-1.342 4.077-1.923 7.62-1.727 10.532 0.192 2.849 1.056 4.4 1.52 5.234 0.049 0.089 0.141 0.253 0.158 0.295 0.181 0.459 0.617 0.756 1.11 0.756 0 0 0.003 0 0.003 0 0.184-0 0.361-0.042 0.527-0.125 0.566-0.28 0.81-0.967 0.555-1.565-0.070-0.165-0.162-0.33-0.269-0.522-0.373-0.67-1.068-1.918-1.224-4.233-0.197-2.934 0.511-6.652 2.106-11.050 0.001-0.003 0.041-0.123 0.060-0.179 0.202-0.585 0.399-1.021 0.56-1.377 0.349-0.772 0.579-1.282 0.379-2.221-0.017-0.080-0.064-0.15-0.132-0.195-0.083-0.056-0.176-0.114-0.274-0.172l0.372-1.012c0.144 0.028 0.292 0.043 0.444 0.043 0.143 0 0.284-0.013 0.423-0.039l0.37 1.008c-0.098 0.058-0.19 0.115-0.273 0.172-0.067 0.046-0.115 0.116-0.132 0.195-0.2 0.939 0.030 1.449 0.379 2.221 0.163 0.36 0.362 0.802 0.567 1.397 0.017 0.049 0.052 0.156 0.053 0.159 1.594 4.399 2.303 8.116 2.105 11.050-0.156 2.315-0.851 3.563-1.224 4.234-0.106 0.191-0.198 0.356-0.268 0.52-0.255 0.598-0.011 1.286 0.555 1.565 0.167 0.082 0.344 0.124 0.527 0.125 0 0 0.003 0 0.003 0 0.493 0 0.929-0.297 1.11-0.755 0.017-0.042 0.109-0.207 0.158-0.296 0.464-0.834 1.328-2.385 1.52-5.234 0.196-2.912-0.385-6.456-1.727-10.532zM19.104 9.972l0.117 0.681-2.22 1.113c-0.053-0.238-0.060-0.478-0.008-0.78 0.593-0.374 1.556-0.796 2.101-1.023 0 0 0.010 0 0.011 0.010zM17.236 1.117c0.868 1.431 1.168 3.162 0.823 4.805-0.316-0.57-0.862-0.995-1.513-1.148l0.69-3.658zM12.912 9.963c0.541 0.226 1.504 0.648 2.097 1.022 0.053 0.306 0.044 0.548-0.010 0.789l-2.22-1.112 0.118-0.69c0.002-0.010 0.011-0.010 0.016-0.009zM12.903 31.37c-0.233 0-0.439-0.14-0.524-0.357-0.029-0.073-0.092-0.188-0.194-0.371-0.44-0.79-1.259-2.262-1.442-4.969-0.19-2.831 0.38-6.294 1.697-10.293 0.076-0.232 0.109-0.471 0.096-0.711-0.047-0.904-0.477-1.751-1.179-2.324-0.266-0.217-0.291-0.525-0.226-0.741s0.256-0.459 0.597-0.493c0.076-0.008 0.244-0.011 0.244-0.011 0.001 0 0.002 0 0.003 0 0.192 0.002 0.38 0.054 0.551 0.14l2.262 1.133c-0.043 0.099-0.090 0.203-0.141 0.316-0.182 0.403-0.408 0.903-0.64 1.605-1.623 4.48-2.343 8.282-2.14 11.303 0.165 2.456 0.905 3.784 1.302 4.497 0.102 0.183 0.182 0.328 0.24 0.462 0.122 0.286 0.008 0.624-0.254 0.753-0.079 0.039-0.164 0.059-0.25 0.060zM14.636 10.057c-0.261-0.132-0.532-0.26-0.786-0.374l0.4-1.089c0.201 0.23 0.445 0.418 0.72 0.553l-0.334 0.909zM16.928 8.871c-0.047-0.127-0.167-0.207-0.296-0.207-0.032 0-0.065 0.005-0.097 0.015-0.17 0.055-0.346 0.082-0.525 0.082-0.792 0-1.467-0.539-1.662-1.307-0.013-0.050-0.321-1.169-0.321-1.169-0.474-1.75-0.197-3.633 0.736-5.17l0.751 3.978c0.030 0.159 0.176 0.27 0.338 0.255 0.056-0.005 0.107-0.008 0.158-0.008 0.943 0 1.71 0.767 1.71 1.71 0 0.258-0.056 0.505-0.166 0.735-0.037 0.077-0.041 0.165-0.012 0.245l0.607 1.65c-0.254 0.114-0.525 0.242-0.786 0.374l-0.436-1.186zM19.096 31.37c-0.086-0-0.171-0.020-0.25-0.060-0.262-0.13-0.376-0.468-0.254-0.754 0.057-0.134 0.137-0.278 0.24-0.462 0.397-0.713 1.137-2.041 1.302-4.497 0.203-3.021-0.517-6.823-2.14-11.303-0.232-0.701-0.458-1.202-0.64-1.605-0.053-0.117-0.101-0.223-0.145-0.325l2.232-1.118c0.182-0.091 0.381-0.145 0.584-0.147 0.001 0 0.002 0 0.004 0 0 0 0.168 0.004 0.244 0.011 0.341 0.034 0.532 0.277 0.597 0.493s0.040 0.524-0.226 0.741c-0.702 0.573-1.132 1.42-1.179 2.324-0.012 0.24 0.020 0.479 0.096 0.711 1.316 3.999 1.887 7.462 1.697 10.293-0.182 2.708-1.001 4.179-1.442 4.969-0.102 0.182-0.165 0.298-0.194 0.371-0.085 0.217-0.291 0.357-0.524 0.357z"></path>
      <path fill="rgba(60, 59, 59, 0.977)" d="M16.020 5.998c-0.538 0-0.975 0.438-0.975 0.975s0.437 0.975 0.975 0.975 0.975-0.438 0.975-0.975c0-0.538-0.438-0.975-0.975-0.975zM16.020 7.319c-0.19 0-0.345-0.155-0.345-0.345s0.155-0.345 0.345-0.345c0.19 0 0.345 0.155 0.345 0.345s-0.155 0.345-0.345 0.345z"></path>
    </symbol>

    <symbol id="tree" viewBox="0 0 32 32">
      <path fill="rgba(60, 59, 59, 0.977)" d="M30.492 31.271h-5.935c0.175-0.996 0.52-3.57 0.127-7.051-0.311-2.758-1.093-5.315-1.11-5.37-0.466-1.65 0.032-3.496 0.829-4.101 0.573-0.434 1.306-0.613 2.011-0.493 0.691 0.118 1.281 0.5 1.66 1.074 0.433 0.655 0.248 1.661-0.207 2.024-0.257 0.205-0.561 0.129-0.904-0.229-0.095-0.099-0.244-0.287-0.181-0.443 0.041-0.102 0.167-0.181 0.293-0.186 0.126-0.006 0.176 0.068 0.203 0.122 0.089 0.181 0.307 0.256 0.488 0.167s0.256-0.307 0.167-0.488c-0.169-0.345-0.501-0.542-0.883-0.53-0.414 0.015-0.793 0.272-0.943 0.64-0.159 0.392-0.039 0.837 0.33 1.222 0.612 0.638 1.317 0.748 1.885 0.294 0.708-0.566 1.020-1.998 0.36-2.996-0.492-0.744-1.254-1.238-2.146-1.391-0.903-0.155-1.842 0.075-2.574 0.63-0.613 0.464-1.034 1.351-1.205 2.356-0.725-1.823-1.636-3.587-2.72-5.277 0.476 0.166 0.993 0.254 1.53 0.254 0.186 0 0.374-0.010 0.564-0.031 1.467-0.162 2.78-0.945 3.513-2.094 0.432-0.676 0.586-1.449 0.412-2.068-0.128-0.457-0.43-0.814-0.874-1.031-0.546-0.267-1.202-0.195-1.631 0.181-0.38 0.332-0.504 0.837-0.333 1.35 0.048 0.145 0.264 0.56 0.675 0.737 0.268 0.115 0.56 0.106 0.846-0.026 0.195-0.086 0.517-0.379 0.389-0.9-0.048-0.196-0.245-0.315-0.441-0.267s-0.315 0.245-0.267 0.441c0.010 0.040 0.008 0.062 0.006 0.068-0.121 0.054-0.196 0.035-0.241 0.016-0.15-0.062-0.259-0.252-0.276-0.299-0.078-0.235-0.036-0.432 0.121-0.57 0.208-0.182 0.549-0.212 0.83-0.075 0.259 0.127 0.42 0.314 0.492 0.573 0.115 0.409-0.013 0.99-0.325 1.479-0.616 0.965-1.729 1.623-2.979 1.761-1.17 0.129-2.258-0.211-2.991-0.933-0.432-0.6-0.885-1.19-1.362-1.769-0.587-0.843-0.498-1.736-0.432-2.081 0.341-1.793 0.557-4.326-1.506-5.621-0.72-0.452-1.451-0.453-2.007-0.005-0.711 0.574-0.957 1.738-0.583 2.768 0.234 0.646 0.816 1.039 1.48 0.999 0.568-0.034 1.012-0.382 1.133-0.889 0.022-0.083 0.113-0.497-0.112-0.893-0.11-0.194-0.339-0.45-0.804-0.574-0.195-0.052-0.394 0.064-0.446 0.259s0.064 0.394 0.259 0.446c0.444 0.118 0.44 0.412 0.399 0.573-0.002 0.005-0.003 0.011-0.004 0.016-0.053 0.228-0.277 0.322-0.468 0.333-0.267 0.016-0.604-0.112-0.751-0.519-0.262-0.722-0.106-1.58 0.356-1.952 0.388-0.313 0.846-0.143 1.161 0.055 1.685 1.057 1.479 3.284 1.177 4.867-0.083 0.438-0.196 1.571 0.556 2.643 0.012 0.017 1.033 1.502 1.806 4.408-0.183-0.179-0.383-0.34-0.602-0.482-1.238-0.802-3.021-0.936-5.021-0.379-0.124 0.035-0.251 0.071-0.381 0.109-1.149 0.333-2.451 0.71-3.414 0.008-0.553-0.403-1.189-1.567-1.212-2.523-0.011-0.449 0.113-0.781 0.369-0.988 0.326-0.263 0.798-0.213 1.132-0.078 0.426 0.172 0.73 0.506 0.774 0.851 0.048 0.376-0.386 0.649-0.704 0.694-0.359 0.050-0.39-0.145-0.4-0.209-0.031-0.199-0.217-0.336-0.416-0.304s-0.335 0.217-0.304 0.416c0.090 0.581 0.582 0.91 1.222 0.819 0.717-0.101 1.427-0.706 1.325-1.508-0.078-0.613-0.547-1.163-1.225-1.436-0.671-0.27-1.384-0.198-1.862 0.187-0.436 0.351-0.657 0.895-0.64 1.573 0.030 1.214 0.806 2.58 1.512 3.094 1.252 0.912 2.802 0.464 4.047 0.103 0.127-0.037 0.252-0.073 0.374-0.107 1.796-0.5 3.369-0.398 4.429 0.289 0.84 0.544 1.368 1.455 1.569 2.708 0.18 1.273 0.297 2.77 0.284 4.479-0.685-0.546-1.715-0.773-2.37-0.813-2.308-0.143-3.011 1.085-3.195 2.141-0.158 0.905 0.31 2.020 1.020 2.435 0.153 0.089 0.385 0.186 0.67 0.186 0.288 0 0.63-0.099 1-0.403 0.515-0.423 1.026-1.387 0.487-2.112-0.43-0.579-1.123-0.576-1.586-0.328-0.448 0.24-0.652 0.675-0.505 1.083 0.068 0.189 0.277 0.288 0.466 0.22s0.288-0.277 0.22-0.466c-0.018-0.049 0.055-0.136 0.163-0.194 0.151-0.081 0.459-0.146 0.656 0.12 0.25 0.337-0.099 0.896-0.365 1.114-0.307 0.252-0.582 0.301-0.841 0.15-0.449-0.262-0.774-1.078-0.669-1.68 0.125-0.718 0.515-1.657 2.431-1.539 0.635 0.040 2.271 0.359 2.382 1.347-0.124 2.779-0.599 6.060-1.672 9.817h-15.015c-0.201 0-0.365 0.163-0.365 0.365s0.163 0.365 0.365 0.365h27.445c0.201 0 0.365-0.163 0.365-0.365s-0.163-0.365-0.365-0.365zM19.932 14.027c-0.216-1.048-0.471-1.957-0.73-2.728 3.23 4.904 4.381 9.639 4.755 12.969 0.397 3.541 0.011 6.168-0.142 7.002h-4.995c2.218-7.888 1.837-13.719 1.112-17.244z"></path>
      <path fill="rgba(60, 59, 59, 0.977)" d="M7.191 14.163c-0.229-0.797-1.167-1.23-2.090-0.964-0.538 0.155-0.953 0.513-1.162 0.943-0.067-0.042-0.136-0.080-0.211-0.113-0.387-0.169-0.84-0.193-1.275-0.068s-0.806 0.386-1.044 0.735c-0.253 0.37-0.329 0.794-0.214 1.193 0.046 0.16 0.192 0.264 0.35 0.264 0.033 0 0.067-0.005 0.101-0.014 0.193-0.056 0.305-0.258 0.249-0.451-0.054-0.186-0.013-0.392 0.115-0.58 0.143-0.209 0.371-0.367 0.643-0.446s0.55-0.066 0.782 0.035c0.208 0.091 0.352 0.243 0.406 0.43 0.046 0.16 0.192 0.264 0.35 0.264 0.033 0 0.067-0.005 0.101-0.014 0.193-0.056 0.305-0.258 0.25-0.451-0.118-0.411 0.222-0.871 0.759-1.025s1.069 0.054 1.188 0.465c0.056 0.193 0.257 0.305 0.451 0.25s0.305-0.258 0.249-0.451z"></path>
      <path fill="rgba(60, 59, 59, 0.977)" d="M28.062 1.958c-0.36-0.048-0.703 0.039-0.964 0.219-0.012-0.014-0.022-0.028-0.035-0.042-0.212-0.229-0.51-0.38-0.839-0.424-0.705-0.095-1.348 0.331-1.431 0.95-0.027 0.2 0.113 0.383 0.313 0.41s0.383-0.113 0.41-0.313c0.029-0.216 0.309-0.364 0.611-0.324 0.159 0.021 0.305 0.093 0.401 0.196 0.046 0.050 0.12 0.152 0.103 0.278-0.027 0.2 0.113 0.383 0.313 0.41s0.383-0.113 0.41-0.313c0.029-0.216 0.308-0.364 0.611-0.324s0.533 0.258 0.504 0.474c-0.027 0.2 0.113 0.383 0.313 0.41 0.016 0.002 0.033 0.003 0.049 0.003 0.18-0 0.336-0.133 0.361-0.316 0.083-0.619-0.424-1.199-1.129-1.294z"></path>
      <path fill="rgba(60, 59, 59, 0.977)" d="M9.288 17.619c-0.36-0.048-0.703 0.039-0.964 0.219-0.012-0.014-0.022-0.028-0.035-0.042-0.212-0.229-0.51-0.38-0.839-0.424-0.705-0.095-1.348 0.331-1.431 0.95-0.027 0.2 0.113 0.383 0.313 0.41s0.383-0.113 0.41-0.313c0.029-0.216 0.308-0.364 0.611-0.324 0.159 0.021 0.305 0.093 0.4 0.196 0.046 0.050 0.12 0.152 0.103 0.278-0.027 0.2 0.113 0.383 0.313 0.41 0.016 0.002 0.033 0.003 0.049 0.003 0.18-0 0.336-0.133 0.361-0.316 0.029-0.216 0.309-0.364 0.611-0.324s0.533 0.258 0.504 0.474c-0.027 0.2 0.113 0.383 0.313 0.41 0.016 0.002 0.033 0.003 0.049 0.003 0.18-0 0.336-0.133 0.361-0.316 0.083-0.618-0.423-1.199-1.129-1.294z"></path>
    </symbol>

    <symbol id="snailshell" viewBox="0 0 32 32">
      <path fill="rgba(60, 59, 59, 0.977)" d="M31.499 10.677h-10.821c-0.019-0.102-0.040-0.203-0.063-0.303-0.455-2.033-1.602-3.879-3.229-5.198-1.651-1.339-3.734-2.076-5.864-2.076-6.354 0-11.523 5.169-11.523 11.522 0 3.814 1.485 7.399 4.182 10.096s6.282 4.182 10.096 4.182c4.734 0 9.184-1.843 12.531-5.191s5.191-7.798 5.191-12.531c-0-0.277-0.224-0.501-0.501-0.501zM26.101 23.001c-3.158 3.158-7.357 4.897-11.823 4.897-3.546 0-6.88-1.381-9.388-3.889s-3.889-5.842-3.889-9.388c0-5.801 4.72-10.521 10.521-10.521 1.901 0 3.76 0.658 5.233 1.853 1.453 1.178 2.477 2.825 2.883 4.639 0.133 0.595 0.201 1.209 0.201 1.825 0 3.614-2.94 6.553-6.553 6.553-2.835-0-5.142-2.307-5.142-5.143 0-1.072 0.417-2.080 1.176-2.838s1.766-1.176 2.838-1.176c1.715 0 3.111 1.396 3.111 3.111 0 1.317-1.072 2.388-2.389 2.388-0 0-0 0-0 0-0.483 0-0.938-0.188-1.28-0.53s-0.53-0.797-0.53-1.28c0-0.614 0.412-1.133 0.974-1.296-0.456 0.189-0.777 0.639-0.777 1.162 0 0.798 0.649 1.447 1.447 1.447 0.929 0 1.684-0.755 1.684-1.684 0-1.092-0.888-1.98-1.98-1.98-1.296 0-2.35 1.054-2.35 2.35 0 0.751 0.292 1.457 0.824 1.988s1.237 0.823 1.988 0.823c0 0 0 0 0.001 0 1.869 0 3.39-1.521 3.39-3.39-0-2.268-1.845-4.112-4.112-4.112-1.34 0-2.599 0.522-3.546 1.469s-1.469 2.207-1.469 3.546c0 3.388 2.756 6.144 6.144 6.144 4.166 0 7.555-3.389 7.555-7.555 0-0.247-0.010-0.494-0.029-0.739h10.18c-0.125 4.279-1.85 8.283-4.89 11.323z"></path>
      <path fill="rgba(60, 59, 59, 0.977)" d="M12.592 7.924c2.469 0 4.478 2.009 4.478 4.479 0 0.276 0.224 0.501 0.501 0.501s0.501-0.224 0.501-0.501c-0-3.022-2.458-5.48-5.48-5.48-0.276 0-0.501 0.224-0.501 0.501s0.224 0.501 0.501 0.501z"></path>
      <path fill="rgba(60, 59, 59, 0.977)" d="M14.394 26.236c-6.38 0-11.571-5.191-11.571-11.571 0-0.276-0.224-0.501-0.501-0.501s-0.501 0.224-0.501 0.501c0 6.932 5.64 12.572 12.572 12.572 0.277 0 0.501-0.224 0.501-0.501s-0.224-0.501-0.501-0.501z"></path>
    </symbol>

    <symbol id="conchshell" viewBox="0 0 32 32">
      <path fill="rgba(60, 59, 59, 0.977)" d="M31.982 16.791c-0.001-0.002-0.002-0.004-0.003-0.007-0.008-0.574-0.048-1.154-0.13-1.738-0.639-4.592-3.023-8.517-6.385-11.207-0.031-0.041-0.069-0.076-0.117-0.102-0.006-0.003-0.012-0.003-0.019-0.006-3.598-2.822-8.288-4.242-13.165-3.564-0.006 0.001-0.010 0.004-0.016 0.006s-0.011-0.001-0.016 0c-0.019 0.004-0.034 0.016-0.052 0.023-0.023 0.009-0.046 0.016-0.066 0.030s-0.035 0.030-0.052 0.047c-0.017 0.016-0.034 0.031-0.047 0.050s-0.021 0.041-0.031 0.063c-0.009 0.021-0.019 0.041-0.024 0.064-0.005 0.024-0.004 0.049-0.004 0.075-0 0.018-0.006 0.036-0.003 0.054 0.001 0.005 0.004 0.009 0.005 0.015s-0.001 0.011 0 0.017l0.567 2.448c-7.081 1.046-12.406 7.208-12.406 14.39 0 8.023 6.527 14.55 14.549 14.55 1.653 0 3.271-0.274 4.817-0.815 0.128-0.045 0.208-0.154 0.233-0.277 0.089-0.011 0.178-0.016 0.268-0.028 2.266-0.315 4.33-1.162 6.088-2.392 0.033-0.016 0.066-0.034 0.093-0.061 0.003-0.002 0.003-0.006 0.006-0.008 3.664-2.61 5.962-6.909 5.907-11.592-0.002-0.013 0.002-0.025 0.001-0.037zM31.126 15.146c0.065 0.465 0.103 0.927 0.119 1.387l-7.986 1.221c-0.008-0.17-0.021-0.342-0.045-0.513-0.246-1.768-1.105-3.303-2.332-4.421l4.402-8.19c3.077 2.569 5.248 6.242 5.843 10.516zM18.028 23.245c-0.007 0.001-0.014 0.001-0.021 0.002l-0.248-2.184c0.73-0.204 1.319-0.705 1.649-1.349l2.386 1.029c-0.786 1.314-2.135 2.275-3.766 2.502zM11.397 27.661c-1.932-1.675-3.18-3.962-3.536-6.518-0.175-1.258-0.056-2.509 0.318-3.686l4.753 0.322c-0.27 0.646-0.367 1.35-0.269 2.061 0.165 1.189 0.753 2.215 1.588 2.954l-2.855 4.868zM15.008 11.687c0.667-0.093 1.324-0.081 1.957 0.021l-0.329 3.65c-0.2-0.009-0.402-0.002-0.604 0.026-1.044 0.145-1.97 0.689-2.606 1.531-0.038 0.051-0.071 0.104-0.107 0.158l-4.875-0.33c0.268-0.634 0.607-1.243 1.033-1.807 1.349-1.786 3.313-2.94 5.53-3.248zM22.488 17.341c0.134 0.967-0.010 1.906-0.365 2.745l-2.475-1.068c0.056-0.282 0.069-0.578 0.027-0.878-0.118-0.855-0.564-1.613-1.253-2.134-0.325-0.245-0.685-0.421-1.065-0.53l0.327-3.611c2.47 0.687 4.43 2.778 4.804 5.475zM13.388 19.738c-0.244-1.757 0.986-3.385 2.743-3.629 0.661-0.092 1.319 0.080 1.852 0.482s0.877 0.988 0.968 1.65c0.146 1.053-0.59 2.028-1.642 2.174-0.023 0.003-0.040 0.014-0.061 0.022-0.024 0.008-0.052 0.013-0.073 0.026-0.020 0.011-0.034 0.029-0.052 0.044s-0.038 0.029-0.053 0.049c-0.014 0.019-0.023 0.041-0.032 0.062-0.011 0.021-0.023 0.039-0.031 0.062s-0.006 0.050-0.008 0.075c-0.001 0.023-0.008 0.043-0.006 0.065l0.28 2.459c-1.939-0.090-3.608-1.548-3.885-3.54zM24.701 4.168l-4.396 8.18c-0.831-0.616-1.791-1.054-2.82-1.279-0.030-0.011-0.059-0.024-0.093-0.028-0.008-0.001-0.015 0.003-0.023 0.003-0.76-0.154-1.556-0.192-2.366-0.090l-2.341-10.107c4.448-0.51 8.713 0.785 12.039 3.321zM0.75 17.45c0-6.84 5.086-12.707 11.84-13.675l1.691 7.3c-2.153 0.451-4.049 1.648-5.388 3.42-1.468 1.943-2.091 4.34-1.756 6.75 0.386 2.779 1.759 5.263 3.885 7.061-0.097 0.174-0.040 0.393 0.133 0.495 0.058 0.035 0.122 0.051 0.185 0.051 0.091 0 0.18-0.036 0.248-0.099 1.748 1.302 3.788 2.053 5.914 2.205-0.958 0.208-1.94 0.312-2.933 0.312-7.619-0.001-13.817-6.199-13.817-13.818zM19.784 30.154c-2.788 0.388-5.563-0.33-7.813-2.026l2.868-4.889c0.824 0.532 1.809 0.819 2.844 0.77 0.001 0 0.001 0 0.001 0 0.014 0 0.028-0.001 0.041-0.003 0.004-0.001 0.005-0.002 0.008-0.003 0.131-0.008 0.263-0.016 0.394-0.034 0.817-0.114 1.575-0.39 2.241-0.79l4.866 4.926c-1.595 1.048-3.439 1.768-5.451 2.048zM25.846 27.682l-4.868-4.928c0.69-0.541 1.254-1.227 1.648-2.004 0.008-0.012 0.018-0.023 0.023-0.038 0.001-0.003 0.001-0.005 0.002-0.008 0.337-0.679 0.546-1.427 0.603-2.208l7.994-1.223c-0.090 4.183-2.156 8.005-5.402 10.409z"></path>
    </symbol>
<!-- <symbol id="siddhasana" viewBox="0 0 32 32">
<path d="M27.749 27.117c-0.145-0.932-1.019-1.57-1.951-1.424l-6.123 0.244v-8.46c0.081-0.192-0.136 0.843 3.16-15.924 0.139-0.706-0.321-1.39-1.026-1.529s-1.39 0.321-1.529 1.026l-1.64 8.34c-0.441-1.021-1.457-1.737-2.641-1.737-1.185 0-2.202 0.717-2.642 1.74l-1.64-8.343c-0.139-0.705-0.823-1.165-1.529-1.026s-1.165 0.823-1.026 1.529c3.296 16.765 3.079 15.734 3.162 15.929v8.449l-6.123-0.239c-0.889-0.136-1.744 0.443-1.933 1.334-0.196 0.923 0.394 1.83 1.317 2.025l2.028 0.43c-0.236 0.296-0.367 0.678-0.335 1.085 0.066 0.856 0.813 1.494 1.666 1.429 7.428-0.57 6.936-0.528 7.056-0.55 0.141 0.026 7.092 0.555 7.176 0.555 0.803 0 1.483-0.619 1.546-1.433 0.031-0.408-0.1-0.791-0.337-1.087l2.029-0.428c0.881-0.188 1.476-1.034 1.335-1.935zM17.579 14.788h-3.162l-0.434-2.207c0.519 0.51 1.231 0.825 2.016 0.825 0.784 0 1.494-0.314 2.013-0.823l-0.434 2.205z"></path>
</symbol>
<symbol id="briefcase" viewBox="0 0 32 32">
<path d="M22 6v-4h-12v4h-10v24h32v-24h-10zM20 6h-8v-2h8v2z"></path>
</symbol>
<symbol id="littleblackbook" viewBox="0 0 32 32">
<path d="M4 0c-2.209 0-4 1.791-4 4v21c0 2.209 1.885 3.313 4 4l11 3v-29c-5.012-1.344-11-3-11-3v0zM28 0c0 0-5.788 1.594-11.049 3h0.049v29c5.617-1.499 11-3 11-3 2.053-0.531 4-1.791 4-4v-21c0-2.209-1.791-4-4-4v0z"></path>
</symbol> -->

  </defs>
</svg>
